<svg xmlns="http://www.w3.org/2000/svg" width="98" height="40" fill="none"><path fill="#1A1A1A" fill-rule="evenodd" d="M98 10.146c-.149-.033-.129-.013-.327-.046a6 6 0 0 0-.633-.075Q96.68 10 96.26 10q-1.34 0-2.258.375t-1.5 1.036q-.583.663-.843 1.536a6.5 6.5 0 0 0-.26 1.873v.65h-1.637v3.147h1.637V28h4.265v-9.383h2.083V15.47h-2.083v-.375q0-.8.434-1.136a1.63 1.63 0 0 1 1.03-.338q.246.001.433.025.186.026.335.05c.099.017.104-.004.104-.004zm-17.825 10.48q.235-.561.57-.911t.732-.5q.396-.15.744-.15.421 0 1.004.15t.955.5v4.445q-.348.525-.856.712a2.9 2.9 0 0 1-1.004.188 2.4 2.4 0 0 1-.868-.163 2.1 2.1 0 0 1-.756-.512q-.336-.35-.546-.936t-.21-1.437q0-.823.235-1.386M76.02 24.91q.446 1.224 1.203 2.048a4.85 4.85 0 0 0 1.773 1.236 5.8 5.8 0 0 0 2.182.412q.819 0 1.76-.387a4.7 4.7 0 0 0 1.588-1.036V28h3.869V10H84.13v6.593a3.45 3.45 0 0 0-1.24-.825q-.669-.25-1.71-.25-.944 0-1.935.413a5.5 5.5 0 0 0-1.81 1.236q-.819.825-1.34 2.048-.52 1.224-.52 2.847 0 1.624.446 2.848Zm-10.424-5.09q.42-.5.942-.7.52-.2 1.017-.2.446 0 .855.15.41.15.72.488.309.337.508.886.198.55.198 1.324 0 .9-.235 1.498-.237.6-.583.975a1.9 1.9 0 0 1-.769.524q-.421.15-.793.15-.423 0-.955-.15a2.14 2.14 0 0 1-.905-.5zm.05 7.568q.619.624 1.35.849.733.225 1.501.225a5.3 5.3 0 0 0 2.009-.413 5.4 5.4 0 0 0 1.835-1.248q.819-.838 1.34-2.11.52-1.274.52-2.973 0-1.548-.422-2.735-.421-1.186-1.153-1.986a4.85 4.85 0 0 0-1.711-1.21 5.3 5.3 0 0 0-2.07-.413q-.944 0-1.922.387a5.2 5.2 0 0 0-1.674 1.037v-1.26H61.38V34h4.265v-6.612ZM55.386 28h4.265V10.923h-4.265zm-5.965 0h4.265V10.923h-4.265zm-14.058-3.07q.434 1.224 1.19 2.048a4.9 4.9 0 0 0 1.761 1.236 5.7 5.7 0 0 0 2.17.412q.819 0 1.76-.375a4.6 4.6 0 0 0 1.588-1.024V28h3.889V15.539h-3.84v1.498q-.72-.824-1.562-1.161a4.6 4.6 0 0 0-1.736-.337q-.942 0-1.947.412a5.5 5.5 0 0 0-1.822 1.236q-.819.825-1.352 2.048t-.533 2.847.434 2.848m4.154-4.284q.224-.562.558-.912a2 2 0 0 1 1.45-.649q.422 0 1.005.137.582.138.955.537v4.421q-.348.525-.856.712a2.9 2.9 0 0 1-1.004.187q-.447 0-.856-.162a2.1 2.1 0 0 1-.744-.512q-.334-.35-.533-.937-.198-.586-.198-1.436 0-.824.223-1.386M14.478 28h4.266v-7.866q.272-.474.706-.712.435-.237.831-.237.694 0 1.066.375t.372 1.573V28h4.266v-7.866q.272-.474.706-.712.435-.237.831-.237.695 0 1.067.375c.372.375.372.774.372 1.573V28h4.265v-7.566q0-2.348-.992-3.622t-3.026-1.274q-1.264 0-2.207.6t-1.512 1.399q-1.043-1.998-3.522-1.998-1.265 0-2.157.549a5.5 5.5 0 0 0-1.463 1.274h-.1l-.148-1.524h-3.62zM0 26.286c.43.383.941.877 1.553 1.176q.794.376 1.972.687t2.79.313q1.736 0 3.037-.438 1.303-.435 2.158-1.186a4.8 4.8 0 0 0 1.277-1.748q.421-1 .422-2.123 0-2.098-1.178-3.285-1.178-1.186-3.212-1.785-1.116-.325-1.897-.55-.78-.224-1.265-.437-.484-.212-.694-.45a.85.85 0 0 1-.21-.586q0-.65.594-1.062.596-.412 1.637-.412a4.1 4.1 0 0 1 1.45.275q.732.274 1.352.6.72.399 1.39.873l1.884-3.846q-.818-.524-1.786-.95a15 15 0 0 0-1.922-.649q-1.103-.3-2.368-.3-1.637 0-2.864.463-1.227.462-2.046 1.224a5 5 0 0 0-1.227 1.748 5.3 5.3 0 0 0-.41 2.036q0 1.973 1.03 3.209 1.028 1.237 2.913 1.81 1.265.376 2.12.613.857.237 1.377.462t.744.462a.86.86 0 0 1 .223.612q0 .625-.72 1.024-.718.4-1.933.4-.795 0-1.525-.3a7.6 7.6 0 0 1-1.302-.675 10 10 0 0 1-1.29-.974z" clip-rule="evenodd"/></svg>