<svg xmlns="http://www.w3.org/2000/svg" width="40" height="40" fill="none"><path fill="#FF46FB" fill-rule="evenodd" d="M27 27h13v9a4 4 0 0 1-4 4h-9z" clip-rule="evenodd"/><path fill="#CA41FC" fill-rule="evenodd" d="M13 27h14v13H13z" clip-rule="evenodd"/><path fill="#8B48FE" fill-rule="evenodd" d="M0 27h13v13H4a4 4 0 0 1-4-4z" clip-rule="evenodd"/><path fill="#81E650" fill-rule="evenodd" d="M40 13H27v14h13z" clip-rule="evenodd"/><path fill="#00D267" fill-rule="evenodd" d="M27 13H13v14h14z" clip-rule="evenodd"/><path fill="#00C0FF" fill-rule="evenodd" d="M13 13H0v14h13z" clip-rule="evenodd"/><path fill="#FFD200" fill-rule="evenodd" d="M27 0h9a4 4 0 0 1 4 4v9H27z" clip-rule="evenodd"/><path fill="#FF8E00" fill-rule="evenodd" d="M13 0h14v13H13z" clip-rule="evenodd"/><path fill="#FF5400" fill-rule="evenodd" d="M0 4a4 4 0 0 1 4-4h9v13H0z" clip-rule="evenodd"/></svg>