<svg width="18" height="18" viewBox="0 0 18 18" fill="none" xmlns="http://www.w3.org/2000/svg">
<path d="M15.465 2.97018e-06H2.535C2.20247 -0.000510631 1.8732 0.0655893 1.56662 0.194402C1.26005 0.323215 0.982378 0.512131 0.750003 0.750003C0.512132 0.982378 0.323215 1.26005 0.194402 1.56662C0.0655894 1.8732 -0.000510631 2.20247 2.97018e-06 2.535V15.465C2.97018e-06 15.7979 0.0655727 16.1275 0.192968 16.4351C0.320364 16.7427 0.507091 17.0221 0.742487 17.2575C0.977884 17.4929 1.25734 17.6796 1.5649 17.807C1.87246 17.9344 2.2021 18 2.535 18H8.43V11.43H6.195V8.865H8.415V6.975C8.39061 6.52311 8.45776 6.07095 8.61241 5.64565C8.76707 5.22035 9.00604 4.83067 9.315 4.5C9.63504 4.19877 10.0125 3.96515 10.4249 3.81309C10.8372 3.66103 11.276 3.59366 11.715 3.615C12.3718 3.59615 13.029 3.63127 13.68 3.72V6H12.33C12.1533 5.98077 11.9745 5.99743 11.8044 6.04898C11.6343 6.10053 11.4763 6.18591 11.34 6.3C11.143 6.56841 11.0474 6.89785 11.07 7.23V8.865H13.605L13.26 11.43H11.07V18H15.465C15.7985 18.002 16.129 17.9378 16.4375 17.8111C16.7459 17.6844 17.0262 17.4977 17.262 17.262C17.4977 17.0262 17.6844 16.7459 17.8111 16.4375C17.9378 16.129 18.002 15.7985 18 15.465V2.535C18.0033 2.20341 17.94 1.87453 17.8137 1.56789C17.6874 1.26126 17.5008 0.98312 17.265 0.750003C16.7881 0.271404 16.1407 0.00165818 15.465 2.97018e-06Z" fill="black"/>
</svg>
