<svg width="18" height="18" viewBox="0 0 18 18" fill="none" xmlns="http://www.w3.org/2000/svg">
<g clip-path="url(#clip0_52_133)">
<path fill-rule="evenodd" clip-rule="evenodd" d="M13.0222 5.71582C13.0223 5.86194 12.9791 6.0048 12.8979 6.12634C12.8168 6.24787 12.7015 6.34262 12.5665 6.39859C12.4315 6.45455 12.283 6.46922 12.1397 6.44074C11.9964 6.41226 11.8647 6.34191 11.7614 6.23859C11.6581 6.13527 11.5877 6.00363 11.5593 5.86031C11.5308 5.717 11.5454 5.56846 11.6014 5.43348C11.6574 5.29851 11.7521 5.18317 11.8737 5.10206C11.9952 5.02095 12.1381 4.97771 12.2842 4.97782C12.4799 4.97782 12.6676 5.05557 12.806 5.19397C12.9444 5.33238 13.0222 5.52009 13.0222 5.71582ZM9 11.0509C8.59437 11.0509 8.19785 10.9306 7.86058 10.7053C7.52331 10.4799 7.26044 10.1596 7.10521 9.78485C6.94998 9.41009 6.90936 8.99772 6.9885 8.59989C7.06763 8.20205 7.26296 7.83661 7.54979 7.54979C7.83661 7.26296 8.20205 7.06763 8.59989 6.9885C8.99772 6.90936 9.41009 6.94998 9.78485 7.10521C10.1596 7.26044 10.4799 7.52331 10.7053 7.86058C10.9306 8.19785 11.0509 8.59437 11.0509 9C11.051 9.26935 10.998 9.53607 10.8949 9.78493C10.7919 10.0338 10.6408 10.2599 10.4504 10.4504C10.2599 10.6408 10.0338 10.7919 9.78493 10.8949C9.53607 10.998 9.26935 11.051 9 11.0509ZM9 5.84073C8.37515 5.84073 7.76434 6.02602 7.2448 6.37316C6.72526 6.72031 6.32033 7.21372 6.08121 7.791C5.84209 8.36828 5.77953 9.0035 5.90143 9.61634C6.02333 10.2292 6.32422 10.7921 6.76606 11.2339C7.20789 11.6758 7.77082 11.9767 8.38366 12.0986C8.9965 12.2205 9.63172 12.1579 10.209 11.9188C10.7863 11.6797 11.2797 11.2747 11.6268 10.7552C11.974 10.2357 12.1593 9.62485 12.1593 9C12.1593 8.16211 11.8264 7.35854 11.2339 6.76606C10.6415 6.17358 9.83789 5.84073 9 5.84073ZM9 3.95618C10.6429 3.95618 10.8371 3.96218 11.4862 3.99218C12.0862 4.01945 12.4135 4.11982 12.6284 4.20382C12.8937 4.30614 13.1347 4.46292 13.3357 4.66406C13.5368 4.8652 13.6934 5.10624 13.7956 5.37164C13.8802 5.58982 13.9805 5.91382 14.0078 6.51382C14.0373 7.16236 14.0438 7.35709 14.0438 9C14.0438 10.6429 14.0373 10.8371 14.0078 11.4856C13.9805 12.0856 13.8802 12.4129 13.7956 12.6311C13.6935 12.8965 13.5369 13.1375 13.3358 13.3385C13.1348 13.5396 12.8937 13.6963 12.6284 13.7984C12.4102 13.8829 12.0829 13.9827 11.4862 14.0105C10.8376 14.04 10.6429 14.046 9 14.046C7.35709 14.046 7.16236 14.04 6.51382 14.0105C5.91382 13.9833 5.58655 13.8829 5.37164 13.7984C5.10626 13.6963 4.86525 13.5396 4.66419 13.3385C4.46312 13.1375 4.30647 12.8965 4.20436 12.6311C4.11982 12.4129 4.01945 12.0856 3.99218 11.4856C3.96273 10.8371 3.95618 10.6424 3.95618 9C3.95618 7.35764 3.96273 7.16236 3.99218 6.51382C4.01945 5.91382 4.11982 5.58655 4.20436 5.37164C4.30656 5.10624 4.46323 4.8652 4.66428 4.66406C4.86533 4.46292 5.10629 4.30614 5.37164 4.20382C5.58982 4.11982 5.91709 4.01945 6.51382 3.99218C7.16291 3.96218 7.35709 3.95618 9 3.95618ZM9 2.84782C7.32927 2.84782 7.11927 2.85491 6.46364 2.88491C5.808 2.91491 5.36127 3.01855 4.97018 3.17073C4.56132 3.32883 4.19001 3.57062 3.88004 3.88059C3.57007 4.19056 3.32829 4.56187 3.17018 4.97073C3.018 5.36236 2.91382 5.80964 2.88436 6.46418C2.85491 7.11873 2.84727 7.33036 2.84727 9.00109C2.84727 10.6718 2.85436 10.8818 2.88436 11.5375C2.91436 12.1931 3.018 12.6398 3.17018 13.0309C3.32823 13.4398 3.56999 13.8111 3.87997 14.1211C4.18995 14.4311 4.56129 14.6729 4.97018 14.8309C5.36127 14.9831 5.80855 15.0873 6.46364 15.1167C7.11873 15.1462 7.32927 15.1538 9 15.1538C10.6707 15.1538 10.8807 15.1467 11.5364 15.1167C12.192 15.0867 12.6387 14.9831 13.0298 14.8309C13.4387 14.6729 13.8101 14.4311 14.12 14.1211C14.43 13.8111 14.6718 13.4398 14.8298 13.0309C14.982 12.6398 15.0862 12.1925 15.1156 11.5375C15.1451 10.8824 15.1527 10.6718 15.1527 9.00109C15.1527 7.33036 15.1456 7.12036 15.1156 6.46473C15.0856 5.80909 14.982 5.36236 14.8298 4.97127C14.6718 4.56238 14.43 4.19104 14.12 3.88106C13.8101 3.57108 13.4387 3.32932 13.0298 3.17127C12.6387 3.01909 12.1915 2.91545 11.5364 2.88545C10.8813 2.85545 10.6707 2.84782 9 2.84782ZM15.8007 0C16.3839 0.000289068 16.9431 0.23209 17.3555 0.644471C17.7679 1.05685 17.9997 1.61608 18 2.19927V15.8007C17.9997 16.3839 17.7679 16.9431 17.3555 17.3555C16.9431 17.7679 16.3839 17.9997 15.8007 18H2.19927C1.61608 17.9997 1.05685 17.7679 0.644471 17.3555C0.23209 16.9431 0.000289068 16.3839 0 15.8007L0 2.19927C0.000289068 1.61608 0.23209 1.05685 0.644471 0.644471C1.05685 0.23209 1.61608 0.000289068 2.19927 0L15.8007 0Z" fill="black"/>
</g>
<defs>
<clipPath id="clip0_52_133">
<rect width="18" height="18" fill="white"/>
</clipPath>
</defs>
</svg>
