<svg width="18" height="18" viewBox="0 0 18 18" fill="none" xmlns="http://www.w3.org/2000/svg">
<g clip-path="url(#clip0_52_135)">
<path fill-rule="evenodd" clip-rule="evenodd" d="M7.73455 11.1191V7.32218L11.0225 9.22091L7.73455 11.1191ZM15.0638 6.17455C14.9919 5.90621 14.8506 5.66154 14.6541 5.46515C14.4577 5.26876 14.2129 5.12759 13.9445 5.05582C12.9578 4.79127 9 4.79127 9 4.79127C9 4.79127 5.04218 4.79127 4.05545 5.05582C3.78728 5.12799 3.54276 5.2693 3.34634 5.46563C3.14992 5.66195 3.00848 5.90641 2.93618 6.17455C2.67273 7.16127 2.67273 9.22091 2.67273 9.22091C2.67273 9.22091 2.67273 11.28 2.93727 12.2667C3.00939 12.535 3.15075 12.7796 3.3472 12.9761C3.54364 13.1725 3.78826 13.3139 4.05655 13.386C5.04327 13.6505 9.00109 13.6505 9.00109 13.6505C9.00109 13.6505 12.9589 13.6505 13.9456 13.386C14.2139 13.3139 14.4584 13.1726 14.6549 12.9763C14.8513 12.78 14.9927 12.5355 15.0649 12.2673C15.3273 11.28 15.3273 9.22091 15.3273 9.22091C15.3273 9.22091 15.3273 7.16127 15.0638 6.17455ZM15.8007 0C16.3839 0.000289068 16.9431 0.23209 17.3555 0.644471C17.7679 1.05685 17.9997 1.61608 18 2.19927V15.8007C17.9997 16.3839 17.7679 16.9431 17.3555 17.3555C16.9431 17.7679 16.3839 17.9997 15.8007 18H2.19927C1.61608 17.9997 1.05685 17.7679 0.644471 17.3555C0.23209 16.9431 0.000289068 16.3839 0 15.8007L0 2.19927C0.000289068 1.61608 0.23209 1.05685 0.644471 0.644471C1.05685 0.23209 1.61608 0.000289068 2.19927 0L15.8007 0Z" fill="black"/>
</g>
<defs>
<clipPath id="clip0_52_135">
<rect width="18" height="18" fill="white"/>
</clipPath>
</defs>
</svg>
