<svg xmlns="http://www.w3.org/2000/svg" fill="none" viewBox="0 0 24 24"><rect width="24" height="24" fill="#E667E6" rx="4"></rect><path fill="#fff" fill-rule="evenodd" d="M16.432 4.505c.611 2.344-.558 4.158-3.404 5.446q-.297 1.13-.618 2.463.432-.195.923-.394c.428-.172.645-.256 1.69-.653 1.417-.538 2.284-.547 2.196.392-.037.394-.304.788-1.011 1.667l-.058.072c-.305.38-.303.376-.402.503a87 87 0 0 1-.725.915q.626-.342 1.467-.824c1.342-.768 2.359-1.158 3.101-1.158.93 0 1.43.597 1.408 1.563l-.988-.02c.011-.487-.098-.617-.42-.617-.51 0-1.388.337-2.585 1.022-1.28.732-2.196 1.23-2.757 1.498-.32.153-.532.237-.693.261-.3.045-.628-.062-.643-.464-.006-.174.057-.28.17-.412a91 91 0 0 0 1.867-2.311c.094-.12.1-.129.334-.419l.134-.166q.455-.565.653-.869a7 7 0 0 0-.676.225 75 75 0 0 0-1.67.646c-.603.243-1.125.476-1.592.72q-.03.122-.057.246c-.358 1.369-.734 2.188-1.134 3.164L21 17v1H10.528c-.743 1.504-1.567 2.662-2.502 2.918-.707.194-1.285.045-1.568-.46-.215-.386-.253-.969-.083-1.608.053-.2.125-.35.25-.85H3v-1h4.05a8.5 8.5 0 0 1 1.27-1.825q.245-.277.492-.527c.712-.718 1.584-1.167 2.448-1.655q.327-1.393.633-2.587-1.588.564-3.696.961l-.195-.908q2.51-.474 4.18-1.153.912-3.394 1.631-4.898c.908-1.9 2.102-1.887 2.62.097ZM9.43 18H7.685c-.133.3-.28.809-.35 1.073-.117.44-.077.818 0 .955.034.062.116.083.413.001.561-.154 1.128-1.016 1.68-2.03Zm1.495-3.677c-.43.307-.99.553-1.387.955a12 12 0 0 0-.456.487c-.396.449-.605.71-.915 1.234l1.711.002c.36-.824.71-1.482 1.047-2.678m-4.628-2.527.659.618-1.318 1.234 1.318 1.235-.66.617-1.318-1.235L3.66 15.5 3 14.883l1.318-1.235L3 12.414l.66-.618 1.317 1.235zm8.42-7.01q-.598 1.25-1.36 3.959c1.858-1.048 2.541-2.388 2.116-4.02-.281-1.077-.213-1.076-.756.062Z" clip-rule="evenodd"></path></svg>