<svg xmlns="http://www.w3.org/2000/svg" fill="none" viewBox="0 0 24 24"><rect width="24" height="24" fill="#0FC0C5" rx="4"></rect><path fill="#fff" fill-rule="evenodd" d="M5 4h10v6h5v10H10v-5H4V4zm5 10v-4h4V5H5v9zm5 4v-.75h1.025v-2.31h-.884v-.574c.512-.082.84-.195 1.173-.365h.802v3.25H18V18zm-4-7h8v8h-8zM6.046 9.48V10H9v-.767h-.846a7 7 0 0 0-.7.05c.68-.668 1.341-1.373 1.341-2.034C8.795 6.495 8.233 6 7.407 6c-.6 0-.99.21-1.407.624l.529.489c.211-.21.442-.402.746-.402.364 0 .595.21.595.593 0 .469-.534 1.02-1.342 1.748z" clip-rule="evenodd"></path></svg>