<svg xmlns="http://www.w3.org/2000/svg" fill="none" viewBox="0 0 24 24"><rect width="24" height="24" fill="#F23030" rx="4"></rect><path fill="#fff" fill-rule="evenodd" d="m16.707 4.5 1.147-1.146-.708-.708-2 2-.353.354.353.354 2 2 .708-.708L16.707 5.5h.793A1.5 1.5 0 0 1 19 7v2h1V7a2.5 2.5 0 0 0-2.5-2.5zM6.147 20.646 7.292 19.5H6.5A2.5 2.5 0 0 1 4 17v-2h1v2a1.5 1.5 0 0 0 1.5 1.5h.793l-1.147-1.146.708-.708 2 2 .353.354-.353.354-2 2-.708-.708ZM12 5H5v9h6v5h8v-9h-6V5zm0 6h6v7h-6zm0-5v4h-1v3H6V6z" clip-rule="evenodd"></path></svg>