<svg xmlns="http://www.w3.org/2000/svg" fill="none" viewBox="0 0 24 24"><rect width="24" height="24" fill="#003CB2" rx="4"></rect><path fill="#fff" fill-rule="evenodd" d="M14.4 6 16 8.25h3.2c.442 0 .8.336.8.75v8.25c0 .414-.358.75-.8.75H4.8c-.442 0-.8-.336-.8-.75V9c0-.414.358-.75.8-.75H8L9.6 6zm-.428.75h-3.944L8.428 9H4.8v8.25h14.4V9h-3.628zM12 9.75c1.988 0 3.6 1.511 3.6 3.375S13.988 16.5 12 16.5s-3.6-1.511-3.6-3.375S10.012 9.75 12 9.75m0 .75c-1.546 0-2.8 1.175-2.8 2.625s1.254 2.625 2.8 2.625 2.8-1.175 2.8-2.625S13.546 10.5 12 10.5m5.2-.75c.663 0 1.2.504 1.2 1.125S17.863 12 17.2 12s-1.2-.504-1.2-1.125.537-1.125 1.2-1.125" clip-rule="evenodd"></path></svg>