<svg xmlns="http://www.w3.org/2000/svg" fill="none" viewBox="0 0 24 24"><rect width="24" height="24" fill="#F23030" rx="4"></rect><path fill="#fff" d="M7.62 15.096q-.528 0-.968-.184a2.15 2.15 0 0 1-.744-.544 2.5 2.5 0 0 1-.488-.856 3.6 3.6 0 0 1-.168-1.144q0-.64.168-1.136.177-.504.488-.84a2 2 0 0 1 .744-.52q.44-.184.968-.184c.528 0 .672.061.96.184q.44.175.752.52t.48.848q.177.496.176 1.128 0 .64-.176 1.144a2.4 2.4 0 0 1-.48.856 2.1 2.1 0 0 1-.752.544 2.4 2.4 0 0 1-.96.184m0-1.016q.536 0 .848-.456.312-.465.312-1.256 0-.784-.312-1.224a.99.99 0 0 0-.848-.44.99.99 0 0 0-.848.44q-.312.44-.312 1.224 0 .792.312 1.256a.98.98 0 0 0 .848.456m5.125 1.016q-.496 0-.936-.168a2.3 2.3 0 0 1-.776-.512 2.4 2.4 0 0 1-.52-.832 3.3 3.3 0 0 1-.192-1.16q0-.648.2-1.152a2.6 2.6 0 0 1 .536-.864 2.3 2.3 0 0 1 .784-.536 2.5 2.5 0 0 1 .944-.184q.504 0 .904.208a2.4 2.4 0 0 1 .664.472l-.624.752a1.8 1.8 0 0 0-.424-.296 1.11 1.11 0 0 0-1 0 1.2 1.2 0 0 0-.408.328 1.8 1.8 0 0 0-.272.528 2.4 2.4 0 0 0-.096.704q0 .808.344 1.256.345.44.92.44.32 0 .568-.136.256-.144.448-.352l.624.736q-.656.768-1.688.768m2.08-.096V9.784h1.88q.417 0 .776.08.369.08.64.272.273.184.432.496.16.312.16.776 0 .576-.256.952-.247.368-.672.552L18.97 15h-1.32l-1-1.88h-.648V15zm1.176-2.816h.608q.465 0 .704-.192.248-.2.248-.584t-.248-.536q-.24-.152-.704-.152h-.608z"></path></svg>