<svg xmlns="http://www.w3.org/2000/svg" fill="none" viewBox="0 0 24 24"><rect width="24" height="24" fill="#FF8000" rx="4"></rect><path fill="#fff" d="M9 11.588V7.392h2.884q.57 0 1.097.079.526.078.928.313.4.216.632.628.253.412.253 1.078t-.253 1.079a1.7 1.7 0 0 1-.632.647 2.8 2.8 0 0 1-.928.294 7.5 7.5 0 0 1-1.097.078zM6 5v14h3v-5.02h3.79q1.414 0 2.405-.372.99-.392 1.603-1.02a3.66 3.66 0 0 0 .907-1.431Q18 10.332 18 9.49a4.8 4.8 0 0 0-.295-1.666 3.66 3.66 0 0 0-.907-1.432q-.612-.627-1.603-1Q14.205 5 12.791 5z"></path></svg>