<svg xmlns="http://www.w3.org/2000/svg" fill="none" viewBox="0 0 24 24"><rect width="24" height="24" fill="#7961F2" rx="4"></rect><path fill="#fff" fill-rule="evenodd" d="M18.238 6.982V4h.89v3.57h.005v.89h-4.461v-.89h2.895a7.1 7.1 0 0 0-5.558-2.678c-3.932 0-7.12 3.196-7.12 7.137a7.13 7.13 0 0 0 3.171 5.94l-.494.742A8.03 8.03 0 0 1 4 12.03C4 7.595 7.586 4 12.009 4a7.99 7.99 0 0 1 6.229 2.982M9.398 18.67c.557.22 1.14.37 1.732.444l-.11.886a8 8 0 0 1-.572-.093l-.022-.005h-.001l-.03-.006-.024-.005-.022-.005h-.001l-.022-.004-.008-.002-.016-.004-.008-.002-.023-.005-.007-.001-.016-.003-.007-.002-.023-.006h-.001l-.022-.006h-.001l-.023-.004a8 8 0 0 1-1.1-.349zm3.52.44a7.2 7.2 0 0 0 1.733-.453l.329.829q-.074.03-.15.058l-.006.003h-.002q-.003 0-.005.003l-.007.002h-.001l-.004.002-.002.001-.007.002s-.002 0-.003.002l-.007.002-.002.001-.007.002-.004.002h-.002l-.004.003-.024.008q-.005 0-.006.003l-.006.001a9 9 0 0 1-.352.118l-.037.011-.013.004-.005.002-.025.007-.005.002-.02.006-.017.005-.034.01-.009.003-.049.013-.003.002-.164.044h-.006l-.05.014h-.001l-.04.01-.008.001-.017.005-.015.003-.025.006h-.002l-.022.006h-.002l-.024.006-.008.001-.008.002-.016.004-.01.002-.014.003h-.001q-.004 0-.007.002h-.002l-.016.003-.008.002-.025.006-.024.005-.008.001h-.001l-.016.004-.008.002-.024.005-.025.005-.025.005-.081.016h-.001l-.106.019-.024.004h-.001l-.025.004h-.007v.001l-.017.003h-.008v.001l-.017.003h-.008l-.007.002h-.001l-.008.001h-.001l-.006.001h-.002l-.006.002h-.002l-.008.001-.007.001h-.003l-.004.001h-.003l-.007.002h-.007l-.004.002h-.004l-.003.001h-.005l-.003.001h-.006l-.007.003h-.011l-.003.002h-.01l-.005.002h-.007l-.013.002-.006.001-.053.007zm4.595-2.554.69.565a8 8 0 0 1-.453.508l-.015.017h-.001l-.017.017-.003.004-.001.001-.013.012-.004.004-.012.013h-.001l-.004.004v.001l-.017.016v.002l-.004.004q-.002 0 0 0l-.013.011v.001l-.004.003-.002.002-.003.003-.008.008-.001.001-.003.003-.001.002-.004.004-.012.012-.002.002-.004.002v.003a.02.02 0 0 0-.011.009l-.002.001-.003.004-.002.001-.003.004-.002.001-.006.006-.001.002q-.003 0-.004.003l-.001.002-.003.002s0 .002-.002.002l-.005.005-.003.003-.002.002-.003.003-.003.002-.002.003-.004.003-.004.002v.002l-.004.003-.003.003-.002.002-.003.003-.003.003-.003.003-.003.004-.003.002-.003.002-.003.003-.002.003-.003.003-.003.002q0 .003-.003.003l-.002.002-.003.003-.004.002q0 .002-.002.002l-.005.005-.002.002-.002.002-.002.003-.003.003q-.002 0-.003.002l-.005.005-.002.002-.003.002-.002.003-.003.002-.003.003-.004.004h-.001l-.004.005-.003.002-.003.003-.002.002-.003.002-.002.002-.005.005-.003.001-.002.004-.003.001q0 .003-.003.004l-.001.001-.005.005-.003.002-.003.003-.002.002-.003.003-.003.002-.005.004v.002l-.004.003-.003.002-.003.003s0 .002-.002.002l-.004.004h-.002l-.005.005-.001.002-.004.003s-.002 0-.002.002l-.004.003-.006.006-.001.001-.005.004-.001.002q-.002 0-.004.003l-.002.002-.006.004v.001l-.005.004-.001.002-.004.003-.001.002-.006.004-.006.005-.006.005h-.001l-.005.005-.005.006h-.001l-.005.004-.001.002-.005.003-.001.002-.011.01h-.001l-.005.004v.001l-.012.01h-.001l-.005.005h-.001l-.016.015-.001.001-.006.005-.012.01H17.2l-.005.006h-.001l-.017.015h-.001l-.017.015a8 8 0 0 1-.418.33l-.526-.72a7 7 0 0 0 1.297-1.234Zm1.498-3.23.875.164a8 8 0 0 1-.255 1.005q0 .005-.002.008l-.015.045-.007.022v.001l-.002.007h-.001l-.005.015-.002.007s-.001 0 0 0l-.006.015v.001l-.001.007-.009.022-.002.008-.006.015v.001q0 .003-.002.005v.001l-.005.014v.001l-.002.007h-.001l-.005.015v.002l-.002.005v.001l-.004.006v.001l-.002.007v.002l-.003.005v.002l-.002.005v.002l-.003.008-.002.005-.001.002-.002.005-.001.002-.005.014v.002l-.002.006-.003.008-.003.006v.001l-.002.006v.002l-.003.005v.001l-.003.008v.002l-.003.005v.002l-.003.004v.002l-.003.007-.002.006-.001.002v.005l-.002.002-.002.007-.003.007-.001.002-.002.004-.001.002q0 .003-.002.005v.003l-.003.006-.001.002q0 .003-.002.005v.002l-.002.005-.001.002-.003.006v.002l-.002.004v.003l-.002.005s0 .002-.002.002l-.002.006v.002l-.002.005-.001.003-.003.004v.002l-.002.006v.002q-.003.001-.004.005l-.001.002v.005l-.002.002-.002.005v.002L19.45 15l-.001.003-.002.005v.002l-.002.005-.001.002-.004.005v.002l-.001.005-.002.003s0 .003-.002.004v.003l-.002.006h-.001l-.002.006-.001.003-.002.004-.001.003-.002.004v.003l-.003.005-.001.003-.002.004-.001.002-.003.006v.002l-.003.006v.002l-.002.004-.001.002-.002.004-.001.003-.003.006v.003l-.003.004v.003l-.003.003v.003l-.003.006v.003l-.003.004-.002.002v.004l-.002.003-.001.004-.001.003-.002.006-.002.003-.001.004q-.002 0-.001.002l-.003.004v.003l-.003.006-.002.002-.001.004-.001.003-.002.004-.001.002-.002.006-.001.003-.002.004-.001.003-.002.004-.001.002-.002.005-.002.002-.002.006v.003l-.003.003v.003l-.003.005-.002.002-.002.006v.002l-.002.005v.002q-.003.002-.003.005v.001l-.004.007v.002q-.002 0-.003.004l-.002.002-.001.004-.001.004-.003.006-.003.006-.001.002v.005l-.002.002-.003.005-.003.007q0 .002-.002.002v.005l-.002.002-.002.006h-.001l-.003.007-.001.002-.002.005-.002.003-.001.004h-.001l-.003.007v.002l-.003.005v.003l-.004.004v.002q0 .004-.003.007v.001l-.003.006v.002q-.003 0-.003.003v.002l-.807-.376c.252-.546.436-1.12.545-1.71Zm.597-3.83q.03.09.058.182l.002.006.006.02.005.015.004.015q0 .003.002.004l.007.029.003.004.01.037.002.006.014.052.002.005.044.163v.004l.014.053v.004l.01.04v.003l.008.027v.004l.008.028v.005l.005.018v.002l.006.024v.002l.004.018v.004l.006.02v.001l.006.03.002.007v.002l.003.012v.004l.004.015v.004l.003.011v.002l.003.013v.005l.003.008v.005l.007.032.002.007v.005l.002.008v.005l.003.008v.003l.005.021v.006l.003.006v.006l.01.044v.013l.003.007v.005l.002.007v.006l.002.006.001.007.001.006.002.006v.006l.012.07.001.005v.007l.003.007.001.012.003.012q.06.368.085.734l-.887.062a7.3 7.3 0 0 0-.35-1.762z" clip-rule="evenodd"></path></svg>