<svg xmlns="http://www.w3.org/2000/svg" fill="none" viewBox="0 0 24 24"><rect width="24" height="24" fill="#7961F2" rx="4"></rect><path fill="#fff" fill-rule="evenodd" d="M6.858 18.832c1.466.524 3.089-.22 3.623-1.66L12 13.082l1.518 4.09c.535 1.44 2.157 2.184 3.624 1.66 1.466-.523 2.22-2.114 1.686-3.555-.535-1.44-2.157-2.184-3.623-1.66a2.8 2.8 0 0 0-1.523 1.295l-1.181-3.18L15 5l-.574.289a1.86 1.86 0 0 0-.912 1.014L12 10.382l-1.514-4.079a1.87 1.87 0 0 0-.912-1.014L9 5l2.499 6.731-1.18 3.18a2.8 2.8 0 0 0-1.524-1.295c-1.466-.523-3.088.22-3.623 1.661-.535 1.44.22 3.032 1.686 3.556Zm.323-.869c.978.349 2.059-.147 2.415-1.107a1.84 1.84 0 0 0-1.124-2.37c-.977-.35-2.059.146-2.415 1.107a1.84 1.84 0 0 0 1.124 2.37m9.638 0a1.84 1.84 0 0 0 1.124-2.37c-.356-.96-1.438-1.456-2.415-1.108a1.84 1.84 0 0 0-1.125 2.37c.357.961 1.438 1.457 2.416 1.108" clip-rule="evenodd"></path></svg>